# xmcd
# 
# Track frame offsets:
#     150
#     18345
#     42863
#     69750
#     89053
#     109258
#     128077
#     144730
#     155190
#     174754
#     189607
#     217374
#     255166
#     270157
# 
# Disc length: 3812
# 
# Revision: 0
# Processed by: cddbd v1.5.2PL0 Copyright (c) Steve Scherf et al.
# Submitted via: fre:ac v1.0.31
# 
DISCID=c30ee20e
DTITLE=Raimundo Amador - Noche de Flamenco y Blues
DYEAR=1998
DGENRE=Flameco&Blues
TTITLE0=Pa mojar con Gran Wyoming
TTITLE1=Candela
TTITLE2=Pata Palo con Kiko Veneno
TTITLE3=Hoy no estoy pa nadie
TTITLE4=Ay que gustito pa mis orejas
TTITLE5=Blues de la frontera
TTITLE6=Camaron con Remedios Amaya
TTITLE7=Tio Diego
TTITLE8=Pasa la vida con Charo Manzano
TTITLE9=Amor en vano con Juan Peroo
TTITLE10=Bolleré con B.B. King
TTITLE11=Gitano de Temporá
TTITLE12=Little Wing
TTITLE13=Yo me quedo en Sevilla con Antonio Carmona
EXTD=YEAR: 1998
EXTT0=Con Gran Wyoming
EXTT1=
EXTT2=Con Kiko Veneno
EXTT3=
EXTT4=
EXTT5=
EXTT6=Con Remedios Amaya
EXTT7=
EXTT8=Con Charo Manzano
EXTT9=Con Juan Perro
EXTT10=Con B.B. King
EXTT11=
EXTT12=
EXTT13=Con Antonio Carmona
PLAYORDER=
